# xmcd
#
# Track frame offsets:
#	150
#	22270
#	33906
#	55718
#	74296
#	92891
#	111126
#	124543
#	151543
#	165268
#	181757
#	217217
#	232041
#	253291
#	272343
#
# Disc length: 3849 seconds
#
# Revision: 0
# Processed by: cddbd v1.4PL0 Copyright (c) Steve Scherf et al.
# Submitted via: EasyCDDAExtractor 5.0.4.1
#
DISCID=c50f070f
DTITLE=Odetta - Blues Everywhere I Go
DYEAR=1999
DGENRE=Blues
TTITLE0=Blues Everywhere I Go
TTITLE1=Please Send Me Someone To Love
TTITLE2=Dink's Blues
TTITLE3=Unemployment Blues
TTITLE4=TB Blues
TTITLE5=Trouble Everywhere - I've Been Living With The Blues
TTITLE6=Can' Afford To Lose My Man
TTITLE7=Homeless Blues
TTITLE8=Oh Papa
TTITLE9=Look The World Over
TTITLE10=Careless Love - St. Louis Blues
TTITLE11=Hear Me Talking To You
TTITLE12=Rich Man Blues
TTITLE13=W.P.A. Blues
TTITLE14=You Gotta Know How
EXTD=\nYEAR: 2000  ID3G:   0
EXTT0=
EXTT1=
EXTT2=
EXTT3=
EXTT4=
EXTT5=
EXTT6=
EXTT7=
EXTT8=
EXTT9=
EXTT10=
EXTT11=
EXTT12=
EXTT13=
EXTT14=
PLAYORDER=
